<svg width="264" height="77" viewBox="0 0 264 77" fill="none" xmlns="http://www.w3.org/2000/svg">
<path d="M18.3352 0.545454V18H15.1477L7.55398 7.0142H7.42614V18H3.7358V0.545454H6.97443L14.5085 11.5227H14.6619V0.545454H18.3352ZM27.2308 18.2557C25.907 18.2557 24.7621 17.9744 23.7962 17.4119C22.8359 16.8437 22.0945 16.054 21.5717 15.0426C21.049 14.0256 20.7876 12.8466 20.7876 11.5057C20.7876 10.1534 21.049 8.97159 21.5717 7.96023C22.0945 6.94318 22.8359 6.15341 23.7962 5.59091C24.7621 5.02273 25.907 4.73864 27.2308 4.73864C28.5547 4.73864 29.6967 5.02273 30.657 5.59091C31.6229 6.15341 32.3672 6.94318 32.8899 7.96023C33.4126 8.97159 33.674 10.1534 33.674 11.5057C33.674 12.8466 33.4126 14.0256 32.8899 15.0426C32.3672 16.054 31.6229 16.8437 30.657 17.4119C29.6967 17.9744 28.5547 18.2557 27.2308 18.2557ZM27.2479 15.4432C27.8501 15.4432 28.353 15.2727 28.7564 14.9318C29.1598 14.5852 29.4638 14.1136 29.6683 13.517C29.8786 12.9205 29.9837 12.2415 29.9837 11.4801C29.9837 10.7188 29.8786 10.0398 29.6683 9.44318C29.4638 8.84659 29.1598 8.375 28.7564 8.02841C28.353 7.68182 27.8501 7.50852 27.2479 7.50852C26.6399 7.50852 26.1286 7.68182 25.7138 8.02841C25.3047 8.375 24.995 8.84659 24.7848 9.44318C24.5803 10.0398 24.478 10.7188 24.478 11.4801C24.478 12.2415 24.5803 12.9205 24.7848 13.517C24.995 14.1136 25.3047 14.5852 25.7138 14.9318C26.1286 15.2727 26.6399 15.4432 27.2479 15.4432ZM45.2202 10.4318V18H41.5895V0.545454H45.1179V7.21875H45.2713C45.5668 6.44602 46.044 5.84091 46.7031 5.40341C47.3622 4.96023 48.1889 4.73864 49.1832 4.73864C50.0923 4.73864 50.8849 4.9375 51.5611 5.33523C52.2429 5.72727 52.7713 6.29261 53.1463 7.03125C53.527 7.7642 53.7145 8.64205 53.7088 9.66477V18H50.0781V10.3125C50.0838 9.50568 49.8793 8.87784 49.4645 8.42898C49.0554 7.98011 48.4815 7.75568 47.7429 7.75568C47.2486 7.75568 46.8111 7.8608 46.4304 8.07102C46.0554 8.28125 45.7599 8.58807 45.544 8.99148C45.3338 9.3892 45.2259 9.86932 45.2202 10.4318ZM62.532 18.2557C61.1854 18.2557 60.0263 17.983 59.0547 17.4375C58.0888 16.8864 57.3445 16.108 56.8217 15.1023C56.299 14.0909 56.0376 12.8949 56.0376 11.5142C56.0376 10.1676 56.299 8.9858 56.8217 7.96875C57.3445 6.9517 58.0803 6.15909 59.0291 5.59091C59.9837 5.02273 61.103 4.73864 62.3871 4.73864C63.2507 4.73864 64.0547 4.87784 64.799 5.15625C65.549 5.42898 66.2024 5.84091 66.7592 6.39205C67.3217 6.94318 67.7592 7.63636 68.0717 8.47159C68.3842 9.30114 68.5405 10.2727 68.5405 11.3864V12.3835H57.4865V10.1335H65.1229C65.1229 9.6108 65.0092 9.14773 64.782 8.74432C64.5547 8.34091 64.2393 8.02557 63.8359 7.7983C63.4382 7.56534 62.9751 7.44886 62.4467 7.44886C61.8956 7.44886 61.407 7.5767 60.9808 7.83239C60.5604 8.08239 60.2308 8.42045 59.9922 8.84659C59.7536 9.26705 59.6314 9.7358 59.6257 10.2528V12.392C59.6257 13.0398 59.745 13.5994 59.9837 14.071C60.228 14.5426 60.5717 14.9062 61.0149 15.1619C61.4581 15.4176 61.9837 15.5455 62.5916 15.5455C62.995 15.5455 63.3643 15.4886 63.6996 15.375C64.0348 15.2614 64.3217 15.0909 64.5604 14.8636C64.799 14.6364 64.9808 14.358 65.1058 14.0284L68.4638 14.25C68.2933 15.0568 67.9439 15.7614 67.4155 16.3636C66.8928 16.9602 66.2166 17.4261 65.3871 17.7614C64.5632 18.0909 63.6115 18.2557 62.532 18.2557ZM70.9098 18V4.90909H74.37V7.21875H74.5234C74.7962 6.4517 75.2507 5.84659 75.8871 5.40341C76.5234 4.96023 77.2848 4.73864 78.1712 4.73864C79.0689 4.73864 79.8331 4.96307 80.4638 5.41193C81.0945 5.85511 81.5149 6.45739 81.7251 7.21875H81.8615C82.1286 6.46875 82.6115 5.86932 83.3104 5.42045C84.0149 4.96591 84.8473 4.73864 85.8075 4.73864C87.0291 4.73864 88.0206 5.12784 88.782 5.90625C89.549 6.67898 89.9325 7.77557 89.9325 9.19602V18H86.3104V9.91193C86.3104 9.18466 86.1172 8.6392 85.7308 8.27557C85.3445 7.91193 84.8615 7.73011 84.282 7.73011C83.6229 7.73011 83.1087 7.94034 82.7393 8.3608C82.37 8.77557 82.1854 9.32386 82.1854 10.0057V18H78.6655V9.83523C78.6655 9.19318 78.4808 8.68182 78.1115 8.30114C77.7479 7.92045 77.2678 7.73011 76.6712 7.73011C76.2678 7.73011 75.9041 7.83239 75.5803 8.03693C75.2621 8.2358 75.0092 8.51705 74.8217 8.88068C74.6342 9.23864 74.5405 9.65909 74.5405 10.142V18H70.9098ZM98.7152 18.2557C97.3913 18.2557 96.2464 17.9744 95.2805 17.4119C94.3203 16.8437 93.5788 16.054 93.0561 15.0426C92.5334 14.0256 92.272 12.8466 92.272 11.5057C92.272 10.1534 92.5334 8.97159 93.0561 7.96023C93.5788 6.94318 94.3203 6.15341 95.2805 5.59091C96.2464 5.02273 97.3913 4.73864 98.7152 4.73864C100.039 4.73864 101.181 5.02273 102.141 5.59091C103.107 6.15341 103.852 6.94318 104.374 7.96023C104.897 8.97159 105.158 10.1534 105.158 11.5057C105.158 12.8466 104.897 14.0256 104.374 15.0426C103.852 16.054 103.107 16.8437 102.141 17.4119C101.181 17.9744 100.039 18.2557 98.7152 18.2557ZM98.7322 15.4432C99.3345 15.4432 99.8374 15.2727 100.241 14.9318C100.644 14.5852 100.948 14.1136 101.153 13.517C101.363 12.9205 101.468 12.2415 101.468 11.4801C101.468 10.7188 101.363 10.0398 101.153 9.44318C100.948 8.84659 100.644 8.375 100.241 8.02841C99.8374 7.68182 99.3345 7.50852 98.7322 7.50852C98.1243 7.50852 97.6129 7.68182 97.1982 8.02841C96.7891 8.375 96.4794 8.84659 96.2692 9.44318C96.0646 10.0398 95.9624 10.7188 95.9624 11.4801C95.9624 12.2415 96.0646 12.9205 96.2692 13.517C96.4794 14.1136 96.7891 14.5852 97.1982 14.9318C97.6129 15.2727 98.1243 15.4432 98.7322 15.4432ZM118.411 8.64205L115.087 8.84659C115.031 8.5625 114.908 8.30682 114.721 8.07955C114.533 7.84659 114.286 7.66193 113.979 7.52557C113.678 7.38352 113.317 7.3125 112.897 7.3125C112.335 7.3125 111.86 7.43182 111.474 7.67045C111.087 7.90341 110.894 8.21591 110.894 8.60795C110.894 8.92045 111.019 9.18466 111.269 9.40057C111.519 9.61648 111.948 9.78977 112.556 9.92045L114.925 10.3977C116.198 10.6591 117.147 11.0795 117.772 11.6591C118.397 12.2386 118.71 13 118.71 13.9432C118.71 14.8011 118.457 15.554 117.951 16.2017C117.451 16.8494 116.763 17.3551 115.888 17.7188C115.019 18.0767 114.016 18.2557 112.88 18.2557C111.147 18.2557 109.766 17.8949 108.738 17.1733C107.715 16.446 107.116 15.4574 106.94 14.2074L110.511 14.0199C110.619 14.5483 110.88 14.9517 111.295 15.2301C111.71 15.5028 112.241 15.6392 112.888 15.6392C113.525 15.6392 114.036 15.517 114.423 15.2727C114.815 15.0227 115.013 14.7017 115.019 14.3097C115.013 13.9801 114.874 13.7102 114.602 13.5C114.329 13.2841 113.908 13.1193 113.34 13.0057L111.073 12.554C109.795 12.2983 108.843 11.8551 108.218 11.2244C107.599 10.5937 107.289 9.78977 107.289 8.8125C107.289 7.97159 107.516 7.24716 107.971 6.6392C108.431 6.03125 109.076 5.5625 109.906 5.23295C110.741 4.90341 111.718 4.73864 112.837 4.73864C114.491 4.73864 115.792 5.08807 116.741 5.78693C117.695 6.4858 118.252 7.4375 118.411 8.64205ZM132.516 18.2557C131.17 18.2557 130.011 17.983 129.039 17.4375C128.073 16.8864 127.329 16.108 126.806 15.1023C126.283 14.0909 126.022 12.8949 126.022 11.5142C126.022 10.1676 126.283 8.9858 126.806 7.96875C127.329 6.9517 128.065 6.15909 129.013 5.59091C129.968 5.02273 131.087 4.73864 132.371 4.73864C133.235 4.73864 134.039 4.87784 134.783 5.15625C135.533 5.42898 136.187 5.84091 136.744 6.39205C137.306 6.94318 137.744 7.63636 138.056 8.47159C138.369 9.30114 138.525 10.2727 138.525 11.3864V12.3835H127.471V10.1335H135.107C135.107 9.6108 134.994 9.14773 134.766 8.74432C134.539 8.34091 134.224 8.02557 133.82 7.7983C133.423 7.56534 132.96 7.44886 132.431 7.44886C131.88 7.44886 131.391 7.5767 130.965 7.83239C130.545 8.08239 130.215 8.42045 129.977 8.84659C129.738 9.26705 129.616 9.7358 129.61 10.2528V12.392C129.61 13.0398 129.729 13.5994 129.968 14.071C130.212 14.5426 130.556 14.9062 130.999 15.1619C131.442 15.4176 131.968 15.5455 132.576 15.5455C132.979 15.5455 133.349 15.4886 133.684 15.375C134.019 15.2614 134.306 15.0909 134.545 14.8636C134.783 14.6364 134.965 14.358 135.09 14.0284L138.448 14.25C138.278 15.0568 137.928 15.7614 137.4 16.3636C136.877 16.9602 136.201 17.4261 135.371 17.7614C134.548 18.0909 133.596 18.2557 132.516 18.2557ZM144.525 10.4318V18H140.894V4.90909H144.354V7.21875H144.508C144.798 6.45739 145.283 5.85511 145.965 5.41193C146.647 4.96307 147.474 4.73864 148.445 4.73864C149.354 4.73864 150.147 4.9375 150.823 5.33523C151.499 5.73295 152.025 6.30114 152.4 7.03977C152.775 7.77273 152.962 8.64773 152.962 9.66477V18H149.332V10.3125C149.337 9.51136 149.133 8.88636 148.718 8.4375C148.303 7.98295 147.732 7.75568 147.005 7.75568C146.516 7.75568 146.085 7.8608 145.71 8.07102C145.34 8.28125 145.05 8.58807 144.84 8.99148C144.636 9.3892 144.531 9.86932 144.525 10.4318ZM161.739 18.2557C160.398 18.2557 159.244 17.9716 158.278 17.4034C157.318 16.8295 156.58 16.0341 156.062 15.017C155.551 14 155.295 12.8295 155.295 11.5057C155.295 10.1648 155.554 8.98864 156.071 7.97727C156.594 6.96023 157.335 6.16761 158.295 5.59943C159.256 5.02557 160.398 4.73864 161.722 4.73864C162.864 4.73864 163.864 4.94602 164.722 5.36079C165.58 5.77557 166.259 6.35795 166.759 7.10795C167.259 7.85795 167.534 8.73864 167.585 9.75H164.159C164.063 9.09659 163.807 8.57102 163.392 8.1733C162.983 7.76989 162.446 7.56818 161.781 7.56818C161.219 7.56818 160.727 7.72159 160.307 8.02841C159.892 8.32955 159.568 8.76989 159.335 9.34943C159.102 9.92898 158.986 10.6307 158.986 11.4545C158.986 12.2898 159.099 13 159.327 13.5852C159.56 14.1705 159.886 14.6165 160.307 14.9233C160.727 15.2301 161.219 15.3835 161.781 15.3835C162.196 15.3835 162.568 15.2983 162.898 15.1278C163.233 14.9574 163.509 14.7102 163.724 14.3864C163.946 14.0568 164.091 13.6619 164.159 13.2017H167.585C167.528 14.2017 167.256 15.0824 166.767 15.8438C166.284 16.5994 165.616 17.1903 164.764 17.6165C163.912 18.0426 162.903 18.2557 161.739 18.2557ZM175.825 18.2557C174.501 18.2557 173.356 17.9744 172.39 17.4119C171.43 16.8437 170.688 16.054 170.165 15.0426C169.643 14.0256 169.381 12.8466 169.381 11.5057C169.381 10.1534 169.643 8.97159 170.165 7.96023C170.688 6.94318 171.43 6.15341 172.39 5.59091C173.356 5.02273 174.501 4.73864 175.825 4.73864C177.148 4.73864 178.29 5.02273 179.251 5.59091C180.217 6.15341 180.961 6.94318 181.484 7.96023C182.006 8.97159 182.268 10.1534 182.268 11.5057C182.268 12.8466 182.006 14.0256 181.484 15.0426C180.961 16.054 180.217 16.8437 179.251 17.4119C178.29 17.9744 177.148 18.2557 175.825 18.2557ZM175.842 15.4432C176.444 15.4432 176.947 15.2727 177.35 14.9318C177.754 14.5852 178.058 14.1136 178.262 13.517C178.472 12.9205 178.577 12.2415 178.577 11.4801C178.577 10.7188 178.472 10.0398 178.262 9.44318C178.058 8.84659 177.754 8.375 177.35 8.02841C176.947 7.68182 176.444 7.50852 175.842 7.50852C175.234 7.50852 174.722 7.68182 174.308 8.02841C173.898 8.375 173.589 8.84659 173.379 9.44318C173.174 10.0398 173.072 10.7188 173.072 11.4801C173.072 12.2415 173.174 12.9205 173.379 13.517C173.589 14.1136 173.898 14.5852 174.308 14.9318C174.722 15.2727 175.234 15.4432 175.842 15.4432ZM188.259 10.4318V18H184.629V4.90909H188.089V7.21875H188.242C188.532 6.45739 189.018 5.85511 189.7 5.41193C190.381 4.96307 191.208 4.73864 192.18 4.73864C193.089 4.73864 193.881 4.9375 194.558 5.33523C195.234 5.73295 195.759 6.30114 196.134 7.03977C196.509 7.77273 196.697 8.64773 196.697 9.66477V18H193.066V10.3125C193.072 9.51136 192.867 8.88636 192.452 8.4375C192.038 7.98295 191.467 7.75568 190.739 7.75568C190.251 7.75568 189.819 7.8608 189.444 8.07102C189.075 8.28125 188.785 8.58807 188.575 8.99148C188.37 9.3892 188.265 9.86932 188.259 10.4318ZM206.521 4.90909V7.63636H198.638V4.90909H206.521ZM200.428 1.77273H204.058V13.9773C204.058 14.3125 204.109 14.5739 204.212 14.7614C204.314 14.9432 204.456 15.071 204.638 15.1449C204.825 15.2187 205.041 15.2557 205.286 15.2557C205.456 15.2557 205.626 15.2415 205.797 15.2131C205.967 15.179 206.098 15.1534 206.189 15.1364L206.76 17.8381C206.578 17.8949 206.322 17.9602 205.993 18.0341C205.663 18.1136 205.263 18.1619 204.791 18.179C203.916 18.2131 203.149 18.0966 202.49 17.8295C201.837 17.5625 201.328 17.1477 200.964 16.5852C200.601 16.0227 200.422 15.3125 200.428 14.4545V1.77273ZM208.886 18V4.90909H212.406V7.19318H212.543C212.781 6.38068 213.182 5.76705 213.744 5.35227C214.307 4.93182 214.955 4.72159 215.688 4.72159C215.869 4.72159 216.065 4.73295 216.276 4.75568C216.486 4.77841 216.67 4.80966 216.83 4.84943V8.07102C216.659 8.01989 216.423 7.97443 216.122 7.93466C215.821 7.89489 215.545 7.875 215.295 7.875C214.761 7.875 214.284 7.99148 213.864 8.22443C213.449 8.4517 213.119 8.76989 212.875 9.17898C212.636 9.58807 212.517 10.0597 212.517 10.5938V18H208.886ZM222.065 18.2472C221.229 18.2472 220.485 18.1023 219.832 17.8125C219.178 17.517 218.661 17.0824 218.281 16.5085C217.906 15.929 217.718 15.2074 217.718 14.3438C217.718 13.6165 217.852 13.0057 218.119 12.5114C218.386 12.017 218.749 11.6193 219.21 11.3182C219.67 11.017 220.192 10.7898 220.778 10.6364C221.369 10.483 221.988 10.375 222.636 10.3125C223.397 10.233 224.011 10.1591 224.477 10.0909C224.942 10.017 225.281 9.90909 225.491 9.76705C225.701 9.625 225.806 9.41477 225.806 9.13636V9.08523C225.806 8.54545 225.636 8.12784 225.295 7.83239C224.96 7.53693 224.482 7.3892 223.863 7.3892C223.21 7.3892 222.69 7.53409 222.303 7.82386C221.917 8.10795 221.661 8.46591 221.536 8.89773L218.178 8.625C218.349 7.82955 218.684 7.14205 219.184 6.5625C219.684 5.97727 220.329 5.52841 221.119 5.21591C221.914 4.89773 222.835 4.73864 223.88 4.73864C224.607 4.73864 225.303 4.82386 225.968 4.99432C226.638 5.16477 227.232 5.42898 227.749 5.78693C228.272 6.14489 228.684 6.60511 228.985 7.16761C229.286 7.72443 229.437 8.39205 229.437 9.17045V18H225.994V16.1847H225.891C225.681 16.5938 225.4 16.9545 225.048 17.267C224.695 17.5739 224.272 17.8153 223.778 17.9915C223.283 18.1619 222.712 18.2472 222.065 18.2472ZM223.104 15.7415C223.638 15.7415 224.11 15.6364 224.519 15.4261C224.928 15.2102 225.249 14.9205 225.482 14.5568C225.715 14.1932 225.832 13.7812 225.832 13.321V11.9318C225.718 12.0057 225.562 12.0739 225.363 12.1364C225.17 12.1932 224.951 12.2472 224.707 12.2983C224.462 12.3437 224.218 12.3864 223.974 12.4261C223.729 12.4602 223.508 12.4915 223.309 12.5199C222.883 12.5824 222.511 12.6818 222.192 12.8182C221.874 12.9545 221.627 13.1392 221.451 13.3722C221.275 13.5994 221.187 13.8835 221.187 14.2244C221.187 14.7188 221.366 15.0966 221.724 15.358C222.087 15.6136 222.548 15.7415 223.104 15.7415ZM237.077 18.2131C236.083 18.2131 235.183 17.9574 234.376 17.446C233.575 16.929 232.938 16.1705 232.467 15.1705C232.001 14.1648 231.768 12.9318 231.768 11.4716C231.768 9.97159 232.009 8.72443 232.492 7.73011C232.975 6.73011 233.617 5.98295 234.418 5.48864C235.225 4.98864 236.109 4.73864 237.069 4.73864C237.802 4.73864 238.413 4.86364 238.901 5.11364C239.396 5.35795 239.793 5.66477 240.094 6.03409C240.401 6.39773 240.634 6.75568 240.793 7.10795H240.904V0.545454H244.526V18H240.947V15.9034H240.793C240.623 16.267 240.381 16.6278 240.069 16.9858C239.762 17.3381 239.362 17.6307 238.867 17.8636C238.379 18.0966 237.782 18.2131 237.077 18.2131ZM238.228 15.3239C238.813 15.3239 239.308 15.1648 239.711 14.8466C240.12 14.5227 240.433 14.071 240.648 13.4915C240.87 12.9119 240.981 12.233 240.981 11.4545C240.981 10.6761 240.873 10 240.657 9.42614C240.441 8.85227 240.129 8.40909 239.719 8.09659C239.31 7.78409 238.813 7.62784 238.228 7.62784C237.631 7.62784 237.129 7.78977 236.719 8.11364C236.31 8.4375 236.001 8.88636 235.79 9.46023C235.58 10.0341 235.475 10.6989 235.475 11.4545C235.475 12.2159 235.58 12.8892 235.79 13.4744C236.006 14.054 236.316 14.5085 236.719 14.8381C237.129 15.1619 237.631 15.3239 238.228 15.3239ZM253.426 18.2557C252.102 18.2557 250.957 17.9744 249.991 17.4119C249.031 16.8437 248.29 16.054 247.767 15.0426C247.244 14.0256 246.983 12.8466 246.983 11.5057C246.983 10.1534 247.244 8.97159 247.767 7.96023C248.29 6.94318 249.031 6.15341 249.991 5.59091C250.957 5.02273 252.102 4.73864 253.426 4.73864C254.75 4.73864 255.892 5.02273 256.852 5.59091C257.818 6.15341 258.562 6.94318 259.085 7.96023C259.608 8.97159 259.869 10.1534 259.869 11.5057C259.869 12.8466 259.608 14.0256 259.085 15.0426C258.562 16.054 257.818 16.8437 256.852 17.4119C255.892 17.9744 254.75 18.2557 253.426 18.2557ZM253.443 15.4432C254.045 15.4432 254.548 15.2727 254.952 14.9318C255.355 14.5852 255.659 14.1136 255.864 13.517C256.074 12.9205 256.179 12.2415 256.179 11.4801C256.179 10.7188 256.074 10.0398 255.864 9.44318C255.659 8.84659 255.355 8.375 254.952 8.02841C254.548 7.68182 254.045 7.50852 253.443 7.50852C252.835 7.50852 252.324 7.68182 251.909 8.02841C251.5 8.375 251.19 8.84659 250.98 9.44318C250.776 10.0398 250.673 10.7188 250.673 11.4801C250.673 12.2415 250.776 12.9205 250.98 13.517C251.19 14.1136 251.5 14.5852 251.909 14.9318C252.324 15.2727 252.835 15.4432 253.443 15.4432ZM4.25142 39.4318V47H0.620739V33.9091H4.08097V36.2188H4.23438C4.52415 35.4574 5.00994 34.8551 5.69176 34.4119C6.37358 33.9631 7.20028 33.7386 8.17188 33.7386C9.08097 33.7386 9.87358 33.9375 10.5497 34.3352C11.2259 34.733 11.7514 35.3011 12.1264 36.0398C12.5014 36.7727 12.6889 37.6477 12.6889 38.6648V47H9.05824V39.3125C9.06392 38.5114 8.85938 37.8864 8.4446 37.4375C8.02983 36.983 7.45881 36.7557 6.73153 36.7557C6.2429 36.7557 5.81108 36.8608 5.43608 37.071C5.06676 37.2812 4.77699 37.5881 4.56676 37.9915C4.36222 38.3892 4.2571 38.8693 4.25142 39.4318ZM19.2834 47.2472C18.4482 47.2472 17.7038 47.1023 17.0504 46.8125C16.397 46.517 15.88 46.0824 15.4993 45.5085C15.1243 44.929 14.9368 44.2074 14.9368 43.3438C14.9368 42.6165 15.0703 42.0057 15.3374 41.5114C15.6044 41.017 15.968 40.6193 16.4283 40.3182C16.8885 40.017 17.4112 39.7898 17.9964 39.6364C18.5874 39.483 19.2067 39.375 19.8544 39.3125C20.6158 39.233 21.2294 39.1591 21.6953 39.0909C22.1612 39.017 22.4993 38.9091 22.7095 38.767C22.9197 38.625 23.0249 38.4148 23.0249 38.1364V38.0852C23.0249 37.5455 22.8544 37.1278 22.5135 36.8324C22.1783 36.5369 21.701 36.3892 21.0817 36.3892C20.4283 36.3892 19.9084 36.5341 19.522 36.8239C19.1357 37.108 18.88 37.4659 18.755 37.8977L15.397 37.625C15.5675 36.8295 15.9027 36.142 16.4027 35.5625C16.9027 34.9773 17.5476 34.5284 18.3374 34.2159C19.1328 33.8977 20.0533 33.7386 21.0987 33.7386C21.826 33.7386 22.522 33.8239 23.1868 33.9943C23.8572 34.1648 24.451 34.429 24.968 34.7869C25.4908 35.1449 25.9027 35.6051 26.2038 36.1676C26.505 36.7244 26.6555 37.392 26.6555 38.1705V47H23.2124V45.1847H23.1101C22.8999 45.5938 22.6186 45.9545 22.2663 46.267C21.9141 46.5739 21.4908 46.8153 20.9964 46.9915C20.5021 47.1619 19.9311 47.2472 19.2834 47.2472ZM20.3232 44.7415C20.8572 44.7415 21.3288 44.6364 21.7379 44.4261C22.147 44.2102 22.468 43.9205 22.701 43.5568C22.9339 43.1932 23.0504 42.7812 23.0504 42.321V40.9318C22.9368 41.0057 22.7805 41.0739 22.5817 41.1364C22.3885 41.1932 22.1697 41.2472 21.9254 41.2983C21.6811 41.3437 21.4368 41.3864 21.1925 41.4261C20.9482 41.4602 20.7266 41.4915 20.5277 41.5199C20.1016 41.5824 19.7294 41.6818 19.4112 41.8182C19.093 41.9545 18.8459 42.1392 18.6697 42.3722C18.4936 42.5994 18.4055 42.8835 18.4055 43.2244C18.4055 43.7188 18.5845 44.0966 18.9425 44.358C19.3061 44.6136 19.7663 44.7415 20.3232 44.7415ZM34.2962 47.2131C33.3018 47.2131 32.4013 46.9574 31.5945 46.446C30.7933 45.929 30.157 45.1705 29.6854 44.1705C29.2195 43.1648 28.9865 41.9318 28.9865 40.4716C28.9865 38.9716 29.228 37.7244 29.7109 36.7301C30.1939 35.7301 30.8359 34.983 31.6371 34.4886C32.4439 33.9886 33.3274 33.7386 34.2876 33.7386C35.0206 33.7386 35.6314 33.8636 36.12 34.1136C36.6143 34.358 37.0121 34.6648 37.3132 35.0341C37.62 35.3977 37.853 35.7557 38.0121 36.108H38.1229V29.5455H41.745V47H38.1655V44.9034H38.0121C37.8416 45.267 37.6001 45.6278 37.2876 45.9858C36.9808 46.3381 36.5803 46.6307 36.0859 46.8636C35.5973 47.0966 35.0007 47.2131 34.2962 47.2131ZM35.4467 44.3239C36.032 44.3239 36.5263 44.1648 36.9297 43.8466C37.3388 43.5227 37.6513 43.071 37.8672 42.4915C38.0888 41.9119 38.1996 41.233 38.1996 40.4545C38.1996 39.6761 38.0916 39 37.8757 38.4261C37.6598 37.8523 37.3473 37.4091 36.9382 37.0966C36.5291 36.7841 36.032 36.6278 35.4467 36.6278C34.8501 36.6278 34.3473 36.7898 33.9382 37.1136C33.5291 37.4375 33.2195 37.8864 33.0092 38.4602C32.799 39.0341 32.6939 39.6989 32.6939 40.4545C32.6939 41.2159 32.799 41.8892 33.0092 42.4744C33.2251 43.054 33.5348 43.5085 33.9382 43.8381C34.3473 44.1619 34.8501 44.3239 35.4467 44.3239ZM48.4631 47.2472C47.6278 47.2472 46.8835 47.1023 46.2301 46.8125C45.5767 46.517 45.0597 46.0824 44.679 45.5085C44.304 44.929 44.1165 44.2074 44.1165 43.3438C44.1165 42.6165 44.25 42.0057 44.517 41.5114C44.7841 41.017 45.1477 40.6193 45.608 40.3182C46.0682 40.017 46.5909 39.7898 47.1761 39.6364C47.767 39.483 48.3864 39.375 49.0341 39.3125C49.7955 39.233 50.4091 39.1591 50.875 39.0909C51.3409 39.017 51.679 38.9091 51.8892 38.767C52.0994 38.625 52.2045 38.4148 52.2045 38.1364V38.0852C52.2045 37.5455 52.0341 37.1278 51.6932 36.8324C51.358 36.5369 50.8807 36.3892 50.2614 36.3892C49.608 36.3892 49.0881 36.5341 48.7017 36.8239C48.3153 37.108 48.0597 37.4659 47.9347 37.8977L44.5767 37.625C44.7472 36.8295 45.0824 36.142 45.5824 35.5625C46.0824 34.9773 46.7273 34.5284 47.517 34.2159C48.3125 33.8977 49.233 33.7386 50.2784 33.7386C51.0057 33.7386 51.7017 33.8239 52.3665 33.9943C53.0369 34.1648 53.6307 34.429 54.1477 34.7869C54.6705 35.1449 55.0824 35.6051 55.3835 36.1676C55.6847 36.7244 55.8352 37.392 55.8352 38.1705V47H52.392V45.1847H52.2898C52.0795 45.5938 51.7983 45.9545 51.446 46.267C51.0938 46.5739 50.6705 46.8153 50.1761 46.9915C49.6818 47.1619 49.1108 47.2472 48.4631 47.2472ZM49.5028 44.7415C50.0369 44.7415 50.5085 44.6364 50.9176 44.4261C51.3267 44.2102 51.6477 43.9205 51.8807 43.5568C52.1136 43.1932 52.2301 42.7812 52.2301 42.321V40.9318C52.1165 41.0057 51.9602 41.0739 51.7614 41.1364C51.5682 41.1932 51.3494 41.2472 51.1051 41.2983C50.8608 41.3437 50.6165 41.3864 50.3722 41.4261C50.1278 41.4602 49.9062 41.4915 49.7074 41.5199C49.2813 41.5824 48.9091 41.6818 48.5909 41.8182C48.2727 41.9545 48.0256 42.1392 47.8494 42.3722C47.6733 42.5994 47.5852 42.8835 47.5852 43.2244C47.5852 43.7188 47.7642 44.0966 48.1222 44.358C48.4858 44.6136 48.946 44.7415 49.5028 44.7415ZM72.8572 51.9091V44.9034H72.7464C72.576 45.267 72.3345 45.6278 72.022 45.9858C71.7152 46.3381 71.3146 46.6307 70.8203 46.8636C70.3317 47.0966 69.7351 47.2131 69.0305 47.2131C68.0362 47.2131 67.1357 46.9574 66.3288 46.446C65.5277 45.929 64.8913 45.1705 64.4197 44.1705C63.9538 43.1648 63.7209 41.9318 63.7209 40.4716C63.7209 38.9716 63.9624 37.7244 64.4453 36.7301C64.9283 35.7301 65.5703 34.983 66.3714 34.4886C67.1783 33.9886 68.0618 33.7386 69.022 33.7386C69.755 33.7386 70.3658 33.8636 70.8544 34.1136C71.3487 34.358 71.7464 34.6648 72.0476 35.0341C72.3544 35.3977 72.5874 35.7557 72.7464 36.108H72.8999V33.9091H76.4794V51.9091H72.8572ZM70.1811 44.3239C70.7663 44.3239 71.2607 44.1648 71.6641 43.8466C72.0732 43.5227 72.3857 43.071 72.6016 42.4915C72.8232 41.9119 72.9339 41.233 72.9339 40.4545C72.9339 39.6761 72.826 39 72.6101 38.4261C72.3942 37.8523 72.0817 37.4091 71.6726 37.0966C71.2635 36.7841 70.7663 36.6278 70.1811 36.6278C69.5845 36.6278 69.0817 36.7898 68.6726 37.1136C68.2635 37.4375 67.9538 37.8864 67.7436 38.4602C67.5334 39.0341 67.4283 39.6989 67.4283 40.4545C67.4283 41.2159 67.5334 41.8892 67.7436 42.4744C67.9595 43.054 68.2692 43.5085 68.6726 43.8381C69.0817 44.1619 69.5845 44.3239 70.1811 44.3239ZM87.7891 41.4261V33.9091H91.4197V47H87.9339V44.6222H87.7976C87.5021 45.3892 87.0107 46.0057 86.3232 46.4716C85.6413 46.9375 84.8089 47.1705 83.826 47.1705C82.951 47.1705 82.1811 46.9716 81.5163 46.5739C80.8516 46.1761 80.3317 45.6108 79.9567 44.8778C79.5874 44.1449 79.3999 43.267 79.3942 42.2443V33.9091H83.0249V41.5966C83.0305 42.3693 83.2379 42.9801 83.647 43.429C84.0561 43.8778 84.6044 44.1023 85.2919 44.1023C85.7294 44.1023 86.1385 44.0028 86.5192 43.804C86.8999 43.5994 87.2067 43.2983 87.4396 42.9006C87.6783 42.5028 87.7947 42.0114 87.7891 41.4261ZM100.29 47.2557C98.9432 47.2557 97.7841 46.983 96.8125 46.4375C95.8466 45.8864 95.1023 45.108 94.5795 44.1023C94.0568 43.0909 93.7955 41.8949 93.7955 40.5142C93.7955 39.1676 94.0568 37.9858 94.5795 36.9688C95.1023 35.9517 95.8381 35.1591 96.7869 34.5909C97.7415 34.0227 98.8608 33.7386 100.145 33.7386C101.009 33.7386 101.813 33.8778 102.557 34.1562C103.307 34.429 103.96 34.8409 104.517 35.392C105.08 35.9432 105.517 36.6364 105.83 37.4716C106.142 38.3011 106.298 39.2727 106.298 40.3864V41.3835H95.2443V39.1335H102.881C102.881 38.6108 102.767 38.1477 102.54 37.7443C102.313 37.3409 101.997 37.0256 101.594 36.7983C101.196 36.5653 100.733 36.4489 100.205 36.4489C99.6534 36.4489 99.1648 36.5767 98.7386 36.8324C98.3182 37.0824 97.9886 37.4205 97.75 37.8466C97.5114 38.267 97.3892 38.7358 97.3835 39.2528V41.392C97.3835 42.0398 97.5028 42.5994 97.7415 43.071C97.9858 43.5426 98.3295 43.9062 98.7727 44.1619C99.2159 44.4176 99.7415 44.5455 100.349 44.5455C100.753 44.5455 101.122 44.4886 101.457 44.375C101.793 44.2614 102.08 44.0909 102.318 43.8636C102.557 43.6364 102.739 43.358 102.864 43.0284L106.222 43.25C106.051 44.0568 105.702 44.7614 105.173 45.3636C104.651 45.9602 103.974 46.4261 103.145 46.7614C102.321 47.0909 101.369 47.2557 100.29 47.2557ZM119.046 47.2131C118.052 47.2131 117.151 46.9574 116.344 46.446C115.543 45.929 114.907 45.1705 114.435 44.1705C113.969 43.1648 113.737 41.9318 113.737 40.4716C113.737 38.9716 113.978 37.7244 114.461 36.7301C114.944 35.7301 115.586 34.983 116.387 34.4886C117.194 33.9886 118.077 33.7386 119.038 33.7386C119.771 33.7386 120.381 33.8636 120.87 34.1136C121.364 34.358 121.762 34.6648 122.063 35.0341C122.37 35.3977 122.603 35.7557 122.762 36.108H122.873V29.5455H126.495V47H122.915V44.9034H122.762C122.592 45.267 122.35 45.6278 122.038 45.9858C121.731 46.3381 121.33 46.6307 120.836 46.8636C120.347 47.0966 119.751 47.2131 119.046 47.2131ZM120.197 44.3239C120.782 44.3239 121.276 44.1648 121.68 43.8466C122.089 43.5227 122.401 43.071 122.617 42.4915C122.839 41.9119 122.95 41.233 122.95 40.4545C122.95 39.6761 122.842 39 122.626 38.4261C122.41 37.8523 122.097 37.4091 121.688 37.0966C121.279 36.7841 120.782 36.6278 120.197 36.6278C119.6 36.6278 119.097 36.7898 118.688 37.1136C118.279 37.4375 117.969 37.8864 117.759 38.4602C117.549 39.0341 117.444 39.6989 117.444 40.4545C117.444 41.2159 117.549 41.8892 117.759 42.4744C117.975 43.054 118.285 43.5085 118.688 43.8381C119.097 44.1619 119.6 44.3239 120.197 44.3239ZM135.446 47.2557C134.099 47.2557 132.94 46.983 131.969 46.4375C131.003 45.8864 130.259 45.108 129.736 44.1023C129.213 43.0909 128.952 41.8949 128.952 40.5142C128.952 39.1676 129.213 37.9858 129.736 36.9688C130.259 35.9517 130.994 35.1591 131.943 34.5909C132.898 34.0227 134.017 33.7386 135.301 33.7386C136.165 33.7386 136.969 33.8778 137.713 34.1562C138.463 34.429 139.116 34.8409 139.673 35.392C140.236 35.9432 140.673 36.6364 140.986 37.4716C141.298 38.3011 141.455 39.2727 141.455 40.3864V41.3835H130.401V39.1335H138.037C138.037 38.6108 137.923 38.1477 137.696 37.7443C137.469 37.3409 137.153 37.0256 136.75 36.7983C136.352 36.5653 135.889 36.4489 135.361 36.4489C134.81 36.4489 134.321 36.5767 133.895 36.8324C133.474 37.0824 133.145 37.4205 132.906 37.8466C132.668 38.267 132.545 38.7358 132.54 39.2528V41.392C132.54 42.0398 132.659 42.5994 132.898 43.071C133.142 43.5426 133.486 43.9062 133.929 44.1619C134.372 44.4176 134.898 44.5455 135.506 44.5455C135.909 44.5455 136.278 44.4886 136.614 44.375C136.949 44.2614 137.236 44.0909 137.474 43.8636C137.713 43.6364 137.895 43.358 138.02 43.0284L141.378 43.25C141.207 44.0568 140.858 44.7614 140.33 45.3636C139.807 45.9602 139.131 46.4261 138.301 46.7614C137.477 47.0909 136.526 47.2557 135.446 47.2557ZM154.716 37.642L151.392 37.8466C151.335 37.5625 151.213 37.3068 151.026 37.0795C150.838 36.8466 150.591 36.6619 150.284 36.5256C149.983 36.3835 149.622 36.3125 149.202 36.3125C148.639 36.3125 148.165 36.4318 147.778 36.6705C147.392 36.9034 147.199 37.2159 147.199 37.608C147.199 37.9205 147.324 38.1847 147.574 38.4006C147.824 38.6165 148.253 38.7898 148.861 38.9205L151.23 39.3977C152.503 39.6591 153.452 40.0795 154.077 40.6591C154.702 41.2386 155.014 42 155.014 42.9432C155.014 43.8011 154.761 44.554 154.256 45.2017C153.756 45.8494 153.068 46.3551 152.193 46.7188C151.324 47.0767 150.321 47.2557 149.185 47.2557C147.452 47.2557 146.071 46.8949 145.043 46.1733C144.02 45.446 143.42 44.4574 143.244 43.2074L146.815 43.0199C146.923 43.5483 147.185 43.9517 147.599 44.2301C148.014 44.5028 148.545 44.6392 149.193 44.6392C149.83 44.6392 150.341 44.517 150.727 44.2727C151.119 44.0227 151.318 43.7017 151.324 43.3097C151.318 42.9801 151.179 42.7102 150.906 42.5C150.634 42.2841 150.213 42.1193 149.645 42.0057L147.378 41.554C146.099 41.2983 145.148 40.8551 144.523 40.2244C143.903 39.5937 143.594 38.7898 143.594 37.8125C143.594 36.9716 143.821 36.2472 144.276 35.6392C144.736 35.0312 145.381 34.5625 146.21 34.233C147.045 33.9034 148.023 33.7386 149.142 33.7386C150.795 33.7386 152.097 34.0881 153.045 34.7869C154 35.4858 154.557 36.4375 154.716 37.642ZM163.266 47.2557C161.92 47.2557 160.761 46.983 159.789 46.4375C158.823 45.8864 158.079 45.108 157.556 44.1023C157.033 43.0909 156.772 41.8949 156.772 40.5142C156.772 39.1676 157.033 37.9858 157.556 36.9688C158.079 35.9517 158.815 35.1591 159.763 34.5909C160.718 34.0227 161.837 33.7386 163.121 33.7386C163.985 33.7386 164.789 33.8778 165.533 34.1562C166.283 34.429 166.937 34.8409 167.494 35.392C168.056 35.9432 168.494 36.6364 168.806 37.4716C169.119 38.3011 169.275 39.2727 169.275 40.3864V41.3835H158.221V39.1335H165.857C165.857 38.6108 165.744 38.1477 165.516 37.7443C165.289 37.3409 164.974 37.0256 164.57 36.7983C164.173 36.5653 163.71 36.4489 163.181 36.4489C162.63 36.4489 162.141 36.5767 161.715 36.8324C161.295 37.0824 160.965 37.4205 160.727 37.8466C160.488 38.267 160.366 38.7358 160.36 39.2528V41.392C160.36 42.0398 160.479 42.5994 160.718 43.071C160.962 43.5426 161.306 43.9062 161.749 44.1619C162.192 44.4176 162.718 44.5455 163.326 44.5455C163.729 44.5455 164.099 44.4886 164.434 44.375C164.769 44.2614 165.056 44.0909 165.295 43.8636C165.533 43.6364 165.715 43.358 165.84 43.0284L169.198 43.25C169.028 44.0568 168.678 44.7614 168.15 45.3636C167.627 45.9602 166.951 46.4261 166.121 46.7614C165.298 47.0909 164.346 47.2557 163.266 47.2557ZM175.275 39.4318V47H171.644V33.9091H175.104V36.2188H175.258C175.548 35.4574 176.033 34.8551 176.715 34.4119C177.397 33.9631 178.224 33.7386 179.195 33.7386C180.104 33.7386 180.897 33.9375 181.573 34.3352C182.249 34.733 182.775 35.3011 183.15 36.0398C183.525 36.7727 183.712 37.6477 183.712 38.6648V47H180.082V39.3125C180.087 38.5114 179.883 37.8864 179.468 37.4375C179.053 36.983 178.482 36.7557 177.755 36.7557C177.266 36.7557 176.835 36.8608 176.46 37.071C176.09 37.2812 175.8 37.5881 175.59 37.9915C175.386 38.3892 175.281 38.8693 175.275 39.4318ZM192.489 47.2557C191.148 47.2557 189.994 46.9716 189.028 46.4034C188.068 45.8295 187.33 45.0341 186.812 44.017C186.301 43 186.045 41.8295 186.045 40.5057C186.045 39.1648 186.304 37.9886 186.821 36.9773C187.344 35.9602 188.085 35.1676 189.045 34.5994C190.006 34.0256 191.148 33.7386 192.472 33.7386C193.614 33.7386 194.614 33.946 195.472 34.3608C196.33 34.7756 197.009 35.358 197.509 36.108C198.009 36.858 198.284 37.7386 198.335 38.75H194.909C194.813 38.0966 194.557 37.571 194.142 37.1733C193.733 36.7699 193.196 36.5682 192.531 36.5682C191.969 36.5682 191.477 36.7216 191.057 37.0284C190.642 37.3295 190.318 37.7699 190.085 38.3494C189.852 38.929 189.736 39.6307 189.736 40.4545C189.736 41.2898 189.849 42 190.077 42.5852C190.31 43.1705 190.636 43.6165 191.057 43.9233C191.477 44.2301 191.969 44.3835 192.531 44.3835C192.946 44.3835 193.318 44.2983 193.648 44.1278C193.983 43.9574 194.259 43.7102 194.474 43.3864C194.696 43.0568 194.841 42.6619 194.909 42.2017H198.335C198.278 43.2017 198.006 44.0824 197.517 44.8438C197.034 45.5994 196.366 46.1903 195.514 46.6165C194.662 47.0426 193.653 47.2557 192.489 47.2557ZM200.66 47V33.9091H204.18V36.1932H204.316C204.555 35.3807 204.955 34.767 205.518 34.3523C206.08 33.9318 206.728 33.7216 207.461 33.7216C207.643 33.7216 207.839 33.733 208.049 33.7557C208.259 33.7784 208.444 33.8097 208.603 33.8494V37.071C208.433 37.0199 208.197 36.9744 207.896 36.9347C207.594 36.8949 207.319 36.875 207.069 36.875C206.535 36.875 206.058 36.9915 205.637 37.2244C205.222 37.4517 204.893 37.7699 204.648 38.179C204.41 38.5881 204.29 39.0597 204.29 39.5938V47H200.66ZM210.48 47V33.9091H214.111V47H210.48ZM212.304 32.2216C211.764 32.2216 211.301 32.0426 210.915 31.6847C210.534 31.321 210.344 30.8864 210.344 30.3807C210.344 29.8807 210.534 29.4517 210.915 29.0938C211.301 28.7301 211.764 28.5483 212.304 28.5483C212.844 28.5483 213.304 28.7301 213.685 29.0938C214.071 29.4517 214.264 29.8807 214.264 30.3807C214.264 30.8864 214.071 31.321 213.685 31.6847C213.304 32.0426 212.844 32.2216 212.304 32.2216ZM217.019 51.9091V33.9091H220.599V36.108H220.761C220.92 35.7557 221.15 35.3977 221.451 35.0341C221.758 34.6648 222.156 34.358 222.644 34.1136C223.138 33.8636 223.752 33.7386 224.485 33.7386C225.44 33.7386 226.32 33.9886 227.127 34.4886C227.934 34.983 228.579 35.7301 229.062 36.7301C229.545 37.7244 229.786 38.9716 229.786 40.4716C229.786 41.9318 229.55 43.1648 229.079 44.1705C228.613 45.1705 227.977 45.929 227.17 46.446C226.369 46.9574 225.471 47.2131 224.477 47.2131C223.772 47.2131 223.173 47.0966 222.678 46.8636C222.19 46.6307 221.789 46.3381 221.477 45.9858C221.164 45.6278 220.925 45.267 220.761 44.9034H220.65V51.9091H217.019ZM220.573 40.4545C220.573 41.233 220.681 41.9119 220.897 42.4915C221.113 43.071 221.425 43.5227 221.835 43.8466C222.244 44.1648 222.741 44.3239 223.326 44.3239C223.917 44.3239 224.417 44.1619 224.826 43.8381C225.235 43.5085 225.545 43.054 225.755 42.4744C225.971 41.8892 226.079 41.2159 226.079 40.4545C226.079 39.6989 225.974 39.0341 225.763 38.4602C225.553 37.8864 225.244 37.4375 224.835 37.1136C224.425 36.7898 223.923 36.6278 223.326 36.6278C222.735 36.6278 222.235 36.7841 221.826 37.0966C221.423 37.4091 221.113 37.8523 220.897 38.4261C220.681 39 220.573 39.6761 220.573 40.4545ZM239.17 33.9091V36.6364H231.286V33.9091H239.17ZM233.076 30.7727H236.707V42.9773C236.707 43.3125 236.758 43.5739 236.86 43.7614C236.962 43.9432 237.104 44.071 237.286 44.1449C237.474 44.2187 237.69 44.2557 237.934 44.2557C238.104 44.2557 238.275 44.2415 238.445 44.2131C238.616 44.179 238.746 44.1534 238.837 44.1364L239.408 46.8381C239.227 46.8949 238.971 46.9602 238.641 47.0341C238.312 47.1136 237.911 47.1619 237.44 47.179C236.565 47.2131 235.798 47.0966 235.138 46.8295C234.485 46.5625 233.977 46.1477 233.613 45.5852C233.249 45.0227 233.07 44.3125 233.076 43.4545V30.7727ZM245.268 47.2472C244.433 47.2472 243.688 47.1023 243.035 46.8125C242.381 46.517 241.864 46.0824 241.484 45.5085C241.109 44.929 240.921 44.2074 240.921 43.3438C240.921 42.6165 241.055 42.0057 241.322 41.5114C241.589 41.017 241.952 40.6193 242.413 40.3182C242.873 40.017 243.396 39.7898 243.981 39.6364C244.572 39.483 245.191 39.375 245.839 39.3125C246.6 39.233 247.214 39.1591 247.68 39.0909C248.146 39.017 248.484 38.9091 248.694 38.767C248.904 38.625 249.009 38.4148 249.009 38.1364V38.0852C249.009 37.5455 248.839 37.1278 248.498 36.8324C248.163 36.5369 247.685 36.3892 247.066 36.3892C246.413 36.3892 245.893 36.5341 245.506 36.8239C245.12 37.108 244.864 37.4659 244.739 37.8977L241.381 37.625C241.552 36.8295 241.887 36.142 242.387 35.5625C242.887 34.9773 243.532 34.5284 244.322 34.2159C245.117 33.8977 246.038 33.7386 247.083 33.7386C247.81 33.7386 248.506 33.8239 249.171 33.9943C249.842 34.1648 250.435 34.429 250.952 34.7869C251.475 35.1449 251.887 35.6051 252.188 36.1676C252.489 36.7244 252.64 37.392 252.64 38.1705V47H249.197V45.1847H249.094C248.884 45.5938 248.603 45.9545 248.251 46.267C247.898 46.5739 247.475 46.8153 246.981 46.9915C246.487 47.1619 245.915 47.2472 245.268 47.2472ZM246.308 44.7415C246.842 44.7415 247.313 44.6364 247.722 44.4261C248.131 44.2102 248.452 43.9205 248.685 43.5568C248.918 43.1932 249.035 42.7812 249.035 42.321V40.9318C248.921 41.0057 248.765 41.0739 248.566 41.1364C248.373 41.1932 248.154 41.2472 247.91 41.2983C247.665 41.3437 247.421 41.3864 247.177 41.4261C246.933 41.4602 246.711 41.4915 246.512 41.5199C246.086 41.5824 245.714 41.6818 245.396 41.8182C245.077 41.9545 244.83 42.1392 244.654 42.3722C244.478 42.5994 244.39 42.8835 244.39 43.2244C244.39 43.7188 244.569 44.0966 244.927 44.358C245.29 44.6136 245.751 44.7415 246.308 44.7415ZM255.457 47V33.9091H258.977V36.1932H259.113C259.352 35.3807 259.752 34.767 260.315 34.3523C260.877 33.9318 261.525 33.7216 262.258 33.7216C262.44 33.7216 262.636 33.733 262.846 33.7557C263.056 33.7784 263.241 33.8097 263.4 33.8494V37.071C263.229 37.0199 262.994 36.9744 262.692 36.9347C262.391 36.8949 262.116 36.875 261.866 36.875C261.332 36.875 260.854 36.9915 260.434 37.2244C260.019 37.4517 259.69 37.7699 259.445 38.179C259.207 38.5881 259.087 39.0597 259.087 39.5938V47H255.457ZM124.348 76.2216C123.786 76.2216 123.303 76.0227 122.9 75.625C122.502 75.2216 122.303 74.7386 122.303 74.1761C122.303 73.6193 122.502 73.142 122.9 72.7443C123.303 72.3466 123.786 72.1477 124.348 72.1477C124.894 72.1477 125.371 72.3466 125.78 72.7443C126.189 73.142 126.394 73.6193 126.394 74.1761C126.394 74.5511 126.297 74.8949 126.104 75.2074C125.917 75.5142 125.669 75.7614 125.363 75.9489C125.056 76.1307 124.718 76.2216 124.348 76.2216ZM131.497 76.2216C130.934 76.2216 130.451 76.0227 130.048 75.625C129.65 75.2216 129.451 74.7386 129.451 74.1761C129.451 73.6193 129.65 73.142 130.048 72.7443C130.451 72.3466 130.934 72.1477 131.497 72.1477C132.042 72.1477 132.52 72.3466 132.929 72.7443C133.338 73.142 133.542 73.6193 133.542 74.1761C133.542 74.5511 133.446 74.8949 133.252 75.2074C133.065 75.5142 132.818 75.7614 132.511 75.9489C132.204 76.1307 131.866 76.2216 131.497 76.2216ZM138.645 76.2216C138.083 76.2216 137.6 76.0227 137.196 75.625C136.799 75.2216 136.6 74.7386 136.6 74.1761C136.6 73.6193 136.799 73.142 137.196 72.7443C137.6 72.3466 138.083 72.1477 138.645 72.1477C139.191 72.1477 139.668 72.3466 140.077 72.7443C140.486 73.142 140.691 73.6193 140.691 74.1761C140.691 74.5511 140.594 74.8949 140.401 75.2074C140.213 75.5142 139.966 75.7614 139.659 75.9489C139.353 76.1307 139.015 76.2216 138.645 76.2216Z" fill="#343A40"/>
</svg>
