<svg width="257" height="77" viewBox="0 0 257 77" fill="none" xmlns="http://www.w3.org/2000/svg">
<path d="M15.3352 0.545454V18H12.1477L4.55398 7.0142H4.42614V18H0.735795V0.545454H3.97443L11.5085 11.5227H11.6619V0.545454H15.3352ZM24.2308 18.2557C22.907 18.2557 21.7621 17.9744 20.7962 17.4119C19.8359 16.8437 19.0945 16.054 18.5717 15.0426C18.049 14.0256 17.7876 12.8466 17.7876 11.5057C17.7876 10.1534 18.049 8.97159 18.5717 7.96023C19.0945 6.94318 19.8359 6.15341 20.7962 5.59091C21.7621 5.02273 22.907 4.73864 24.2308 4.73864C25.5547 4.73864 26.6967 5.02273 27.657 5.59091C28.6229 6.15341 29.3672 6.94318 29.8899 7.96023C30.4126 8.97159 30.674 10.1534 30.674 11.5057C30.674 12.8466 30.4126 14.0256 29.8899 15.0426C29.3672 16.054 28.6229 16.8437 27.657 17.4119C26.6967 17.9744 25.5547 18.2557 24.2308 18.2557ZM24.2479 15.4432C24.8501 15.4432 25.353 15.2727 25.7564 14.9318C26.1598 14.5852 26.4638 14.1136 26.6683 13.517C26.8786 12.9205 26.9837 12.2415 26.9837 11.4801C26.9837 10.7188 26.8786 10.0398 26.6683 9.44318C26.4638 8.84659 26.1598 8.375 25.7564 8.02841C25.353 7.68182 24.8501 7.50852 24.2479 7.50852C23.6399 7.50852 23.1286 7.68182 22.7138 8.02841C22.3047 8.375 21.995 8.84659 21.7848 9.44318C21.5803 10.0398 21.478 10.7188 21.478 11.4801C21.478 12.2415 21.5803 12.9205 21.7848 13.517C21.995 14.1136 22.3047 14.5852 22.7138 14.9318C23.1286 15.2727 23.6399 15.4432 24.2479 15.4432ZM42.2202 10.4318V18H38.5895V0.545454H42.1179V7.21875H42.2713C42.5668 6.44602 43.044 5.84091 43.7031 5.40341C44.3622 4.96023 45.1889 4.73864 46.1832 4.73864C47.0923 4.73864 47.8849 4.9375 48.5611 5.33523C49.2429 5.72727 49.7713 6.29261 50.1463 7.03125C50.527 7.7642 50.7145 8.64205 50.7088 9.66477V18H47.0781V10.3125C47.0838 9.50568 46.8793 8.87784 46.4645 8.42898C46.0554 7.98011 45.4815 7.75568 44.7429 7.75568C44.2486 7.75568 43.8111 7.8608 43.4304 8.07102C43.0554 8.28125 42.7599 8.58807 42.544 8.99148C42.3338 9.3892 42.2259 9.86932 42.2202 10.4318ZM59.532 18.2557C58.1854 18.2557 57.0263 17.983 56.0547 17.4375C55.0888 16.8864 54.3445 16.108 53.8217 15.1023C53.299 14.0909 53.0376 12.8949 53.0376 11.5142C53.0376 10.1676 53.299 8.9858 53.8217 7.96875C54.3445 6.9517 55.0803 6.15909 56.0291 5.59091C56.9837 5.02273 58.103 4.73864 59.3871 4.73864C60.2507 4.73864 61.0547 4.87784 61.799 5.15625C62.549 5.42898 63.2024 5.84091 63.7592 6.39205C64.3217 6.94318 64.7592 7.63636 65.0717 8.47159C65.3842 9.30114 65.5405 10.2727 65.5405 11.3864V12.3835H54.4865V10.1335H62.1229C62.1229 9.6108 62.0092 9.14773 61.782 8.74432C61.5547 8.34091 61.2393 8.02557 60.8359 7.7983C60.4382 7.56534 59.9751 7.44886 59.4467 7.44886C58.8956 7.44886 58.407 7.5767 57.9808 7.83239C57.5604 8.08239 57.2308 8.42045 56.9922 8.84659C56.7536 9.26705 56.6314 9.7358 56.6257 10.2528V12.392C56.6257 13.0398 56.745 13.5994 56.9837 14.071C57.228 14.5426 57.5717 14.9062 58.0149 15.1619C58.4581 15.4176 58.9837 15.5455 59.5916 15.5455C59.995 15.5455 60.3643 15.4886 60.6996 15.375C61.0348 15.2614 61.3217 15.0909 61.5604 14.8636C61.799 14.6364 61.9808 14.358 62.1058 14.0284L65.4638 14.25C65.2933 15.0568 64.9439 15.7614 64.4155 16.3636C63.8928 16.9602 63.2166 17.4261 62.3871 17.7614C61.5632 18.0909 60.6115 18.2557 59.532 18.2557ZM67.9098 18V4.90909H71.37V7.21875H71.5234C71.7962 6.4517 72.2507 5.84659 72.8871 5.40341C73.5234 4.96023 74.2848 4.73864 75.1712 4.73864C76.0689 4.73864 76.8331 4.96307 77.4638 5.41193C78.0945 5.85511 78.5149 6.45739 78.7251 7.21875H78.8615C79.1286 6.46875 79.6115 5.86932 80.3104 5.42045C81.0149 4.96591 81.8473 4.73864 82.8075 4.73864C84.0291 4.73864 85.0206 5.12784 85.782 5.90625C86.549 6.67898 86.9325 7.77557 86.9325 9.19602V18H83.3104V9.91193C83.3104 9.18466 83.1172 8.6392 82.7308 8.27557C82.3445 7.91193 81.8615 7.73011 81.282 7.73011C80.6229 7.73011 80.1087 7.94034 79.7393 8.3608C79.37 8.77557 79.1854 9.32386 79.1854 10.0057V18H75.6655V9.83523C75.6655 9.19318 75.4808 8.68182 75.1115 8.30114C74.7479 7.92045 74.2678 7.73011 73.6712 7.73011C73.2678 7.73011 72.9041 7.83239 72.5803 8.03693C72.2621 8.2358 72.0092 8.51705 71.8217 8.88068C71.6342 9.23864 71.5405 9.65909 71.5405 10.142V18H67.9098ZM95.7152 18.2557C94.3913 18.2557 93.2464 17.9744 92.2805 17.4119C91.3203 16.8437 90.5788 16.054 90.0561 15.0426C89.5334 14.0256 89.272 12.8466 89.272 11.5057C89.272 10.1534 89.5334 8.97159 90.0561 7.96023C90.5788 6.94318 91.3203 6.15341 92.2805 5.59091C93.2464 5.02273 94.3913 4.73864 95.7152 4.73864C97.0391 4.73864 98.1811 5.02273 99.1413 5.59091C100.107 6.15341 100.852 6.94318 101.374 7.96023C101.897 8.97159 102.158 10.1534 102.158 11.5057C102.158 12.8466 101.897 14.0256 101.374 15.0426C100.852 16.054 100.107 16.8437 99.1413 17.4119C98.1811 17.9744 97.0391 18.2557 95.7152 18.2557ZM95.7322 15.4432C96.3345 15.4432 96.8374 15.2727 97.2408 14.9318C97.6442 14.5852 97.9482 14.1136 98.1527 13.517C98.3629 12.9205 98.468 12.2415 98.468 11.4801C98.468 10.7188 98.3629 10.0398 98.1527 9.44318C97.9482 8.84659 97.6442 8.375 97.2408 8.02841C96.8374 7.68182 96.3345 7.50852 95.7322 7.50852C95.1243 7.50852 94.6129 7.68182 94.1982 8.02841C93.7891 8.375 93.4794 8.84659 93.2692 9.44318C93.0646 10.0398 92.9624 10.7188 92.9624 11.4801C92.9624 12.2415 93.0646 12.9205 93.2692 13.517C93.4794 14.1136 93.7891 14.5852 94.1982 14.9318C94.6129 15.2727 95.1243 15.4432 95.7322 15.4432ZM115.411 8.64205L112.087 8.84659C112.031 8.5625 111.908 8.30682 111.721 8.07955C111.533 7.84659 111.286 7.66193 110.979 7.52557C110.678 7.38352 110.317 7.3125 109.897 7.3125C109.335 7.3125 108.86 7.43182 108.474 7.67045C108.087 7.90341 107.894 8.21591 107.894 8.60795C107.894 8.92045 108.019 9.18466 108.269 9.40057C108.519 9.61648 108.948 9.78977 109.556 9.92045L111.925 10.3977C113.198 10.6591 114.147 11.0795 114.772 11.6591C115.397 12.2386 115.71 13 115.71 13.9432C115.71 14.8011 115.457 15.554 114.951 16.2017C114.451 16.8494 113.763 17.3551 112.888 17.7188C112.019 18.0767 111.016 18.2557 109.88 18.2557C108.147 18.2557 106.766 17.8949 105.738 17.1733C104.715 16.446 104.116 15.4574 103.94 14.2074L107.511 14.0199C107.619 14.5483 107.88 14.9517 108.295 15.2301C108.71 15.5028 109.241 15.6392 109.888 15.6392C110.525 15.6392 111.036 15.517 111.423 15.2727C111.815 15.0227 112.013 14.7017 112.019 14.3097C112.013 13.9801 111.874 13.7102 111.602 13.5C111.329 13.2841 110.908 13.1193 110.34 13.0057L108.073 12.554C106.795 12.2983 105.843 11.8551 105.218 11.2244C104.599 10.5937 104.289 9.78977 104.289 8.8125C104.289 7.97159 104.516 7.24716 104.971 6.6392C105.431 6.03125 106.076 5.5625 106.906 5.23295C107.741 4.90341 108.718 4.73864 109.837 4.73864C111.491 4.73864 112.792 5.08807 113.741 5.78693C114.695 6.4858 115.252 7.4375 115.411 8.64205ZM129.516 18.2557C128.17 18.2557 127.011 17.983 126.039 17.4375C125.073 16.8864 124.329 16.108 123.806 15.1023C123.283 14.0909 123.022 12.8949 123.022 11.5142C123.022 10.1676 123.283 8.9858 123.806 7.96875C124.329 6.9517 125.065 6.15909 126.013 5.59091C126.968 5.02273 128.087 4.73864 129.371 4.73864C130.235 4.73864 131.039 4.87784 131.783 5.15625C132.533 5.42898 133.187 5.84091 133.744 6.39205C134.306 6.94318 134.744 7.63636 135.056 8.47159C135.369 9.30114 135.525 10.2727 135.525 11.3864V12.3835H124.471V10.1335H132.107C132.107 9.6108 131.994 9.14773 131.766 8.74432C131.539 8.34091 131.224 8.02557 130.82 7.7983C130.423 7.56534 129.96 7.44886 129.431 7.44886C128.88 7.44886 128.391 7.5767 127.965 7.83239C127.545 8.08239 127.215 8.42045 126.977 8.84659C126.738 9.26705 126.616 9.7358 126.61 10.2528V12.392C126.61 13.0398 126.729 13.5994 126.968 14.071C127.212 14.5426 127.556 14.9062 127.999 15.1619C128.442 15.4176 128.968 15.5455 129.576 15.5455C129.979 15.5455 130.349 15.4886 130.684 15.375C131.019 15.2614 131.306 15.0909 131.545 14.8636C131.783 14.6364 131.965 14.358 132.09 14.0284L135.448 14.25C135.278 15.0568 134.928 15.7614 134.4 16.3636C133.877 16.9602 133.201 17.4261 132.371 17.7614C131.548 18.0909 130.596 18.2557 129.516 18.2557ZM141.525 10.4318V18H137.894V4.90909H141.354V7.21875H141.508C141.798 6.45739 142.283 5.85511 142.965 5.41193C143.647 4.96307 144.474 4.73864 145.445 4.73864C146.354 4.73864 147.147 4.9375 147.823 5.33523C148.499 5.73295 149.025 6.30114 149.4 7.03977C149.775 7.77273 149.962 8.64773 149.962 9.66477V18H146.332V10.3125C146.337 9.51136 146.133 8.88636 145.718 8.4375C145.303 7.98295 144.732 7.75568 144.005 7.75568C143.516 7.75568 143.085 7.8608 142.71 8.07102C142.34 8.28125 142.05 8.58807 141.84 8.99148C141.636 9.3892 141.531 9.86932 141.525 10.4318ZM158.739 18.2557C157.398 18.2557 156.244 17.9716 155.278 17.4034C154.318 16.8295 153.58 16.0341 153.062 15.017C152.551 14 152.295 12.8295 152.295 11.5057C152.295 10.1648 152.554 8.98864 153.071 7.97727C153.594 6.96023 154.335 6.16761 155.295 5.59943C156.256 5.02557 157.398 4.73864 158.722 4.73864C159.864 4.73864 160.864 4.94602 161.722 5.36079C162.58 5.77557 163.259 6.35795 163.759 7.10795C164.259 7.85795 164.534 8.73864 164.585 9.75H161.159C161.063 9.09659 160.807 8.57102 160.392 8.1733C159.983 7.76989 159.446 7.56818 158.781 7.56818C158.219 7.56818 157.727 7.72159 157.307 8.02841C156.892 8.32955 156.568 8.76989 156.335 9.34943C156.102 9.92898 155.986 10.6307 155.986 11.4545C155.986 12.2898 156.099 13 156.327 13.5852C156.56 14.1705 156.886 14.6165 157.307 14.9233C157.727 15.2301 158.219 15.3835 158.781 15.3835C159.196 15.3835 159.568 15.2983 159.898 15.1278C160.233 14.9574 160.509 14.7102 160.724 14.3864C160.946 14.0568 161.091 13.6619 161.159 13.2017H164.585C164.528 14.2017 164.256 15.0824 163.767 15.8438C163.284 16.5994 162.616 17.1903 161.764 17.6165C160.912 18.0426 159.903 18.2557 158.739 18.2557ZM172.825 18.2557C171.501 18.2557 170.356 17.9744 169.39 17.4119C168.43 16.8437 167.688 16.054 167.165 15.0426C166.643 14.0256 166.381 12.8466 166.381 11.5057C166.381 10.1534 166.643 8.97159 167.165 7.96023C167.688 6.94318 168.43 6.15341 169.39 5.59091C170.356 5.02273 171.501 4.73864 172.825 4.73864C174.148 4.73864 175.29 5.02273 176.251 5.59091C177.217 6.15341 177.961 6.94318 178.484 7.96023C179.006 8.97159 179.268 10.1534 179.268 11.5057C179.268 12.8466 179.006 14.0256 178.484 15.0426C177.961 16.054 177.217 16.8437 176.251 17.4119C175.29 17.9744 174.148 18.2557 172.825 18.2557ZM172.842 15.4432C173.444 15.4432 173.947 15.2727 174.35 14.9318C174.754 14.5852 175.058 14.1136 175.262 13.517C175.472 12.9205 175.577 12.2415 175.577 11.4801C175.577 10.7188 175.472 10.0398 175.262 9.44318C175.058 8.84659 174.754 8.375 174.35 8.02841C173.947 7.68182 173.444 7.50852 172.842 7.50852C172.234 7.50852 171.722 7.68182 171.308 8.02841C170.898 8.375 170.589 8.84659 170.379 9.44318C170.174 10.0398 170.072 10.7188 170.072 11.4801C170.072 12.2415 170.174 12.9205 170.379 13.517C170.589 14.1136 170.898 14.5852 171.308 14.9318C171.722 15.2727 172.234 15.4432 172.842 15.4432ZM185.259 10.4318V18H181.629V4.90909H185.089V7.21875H185.242C185.532 6.45739 186.018 5.85511 186.7 5.41193C187.381 4.96307 188.208 4.73864 189.18 4.73864C190.089 4.73864 190.881 4.9375 191.558 5.33523C192.234 5.73295 192.759 6.30114 193.134 7.03977C193.509 7.77273 193.697 8.64773 193.697 9.66477V18H190.066V10.3125C190.072 9.51136 189.867 8.88636 189.452 8.4375C189.038 7.98295 188.467 7.75568 187.739 7.75568C187.251 7.75568 186.819 7.8608 186.444 8.07102C186.075 8.28125 185.785 8.58807 185.575 8.99148C185.37 9.3892 185.265 9.86932 185.259 10.4318ZM203.521 4.90909V7.63636H195.638V4.90909H203.521ZM197.428 1.77273H201.058V13.9773C201.058 14.3125 201.109 14.5739 201.212 14.7614C201.314 14.9432 201.456 15.071 201.638 15.1449C201.825 15.2187 202.041 15.2557 202.286 15.2557C202.456 15.2557 202.626 15.2415 202.797 15.2131C202.967 15.179 203.098 15.1534 203.189 15.1364L203.76 17.8381C203.578 17.8949 203.322 17.9602 202.993 18.0341C202.663 18.1136 202.263 18.1619 201.791 18.179C200.916 18.2131 200.149 18.0966 199.49 17.8295C198.837 17.5625 198.328 17.1477 197.964 16.5852C197.601 16.0227 197.422 15.3125 197.428 14.4545V1.77273ZM205.886 18V4.90909H209.406V7.19318H209.543C209.781 6.38068 210.182 5.76705 210.744 5.35227C211.307 4.93182 211.955 4.72159 212.688 4.72159C212.869 4.72159 213.065 4.73295 213.276 4.75568C213.486 4.77841 213.67 4.80966 213.83 4.84943V8.07102C213.659 8.01989 213.423 7.97443 213.122 7.93466C212.821 7.89489 212.545 7.875 212.295 7.875C211.761 7.875 211.284 7.99148 210.864 8.22443C210.449 8.4517 210.119 8.76989 209.875 9.17898C209.636 9.58807 209.517 10.0597 209.517 10.5938V18H205.886ZM219.065 18.2472C218.229 18.2472 217.485 18.1023 216.832 17.8125C216.178 17.517 215.661 17.0824 215.281 16.5085C214.906 15.929 214.718 15.2074 214.718 14.3438C214.718 13.6165 214.852 13.0057 215.119 12.5114C215.386 12.017 215.749 11.6193 216.21 11.3182C216.67 11.017 217.192 10.7898 217.778 10.6364C218.369 10.483 218.988 10.375 219.636 10.3125C220.397 10.233 221.011 10.1591 221.477 10.0909C221.942 10.017 222.281 9.90909 222.491 9.76705C222.701 9.625 222.806 9.41477 222.806 9.13636V9.08523C222.806 8.54545 222.636 8.12784 222.295 7.83239C221.96 7.53693 221.482 7.3892 220.863 7.3892C220.21 7.3892 219.69 7.53409 219.303 7.82386C218.917 8.10795 218.661 8.46591 218.536 8.89773L215.178 8.625C215.349 7.82955 215.684 7.14205 216.184 6.5625C216.684 5.97727 217.329 5.52841 218.119 5.21591C218.914 4.89773 219.835 4.73864 220.88 4.73864C221.607 4.73864 222.303 4.82386 222.968 4.99432C223.638 5.16477 224.232 5.42898 224.749 5.78693C225.272 6.14489 225.684 6.60511 225.985 7.16761C226.286 7.72443 226.437 8.39205 226.437 9.17045V18H222.994V16.1847H222.891C222.681 16.5938 222.4 16.9545 222.048 17.267C221.695 17.5739 221.272 17.8153 220.778 17.9915C220.283 18.1619 219.712 18.2472 219.065 18.2472ZM220.104 15.7415C220.638 15.7415 221.11 15.6364 221.519 15.4261C221.928 15.2102 222.249 14.9205 222.482 14.5568C222.715 14.1932 222.832 13.7812 222.832 13.321V11.9318C222.718 12.0057 222.562 12.0739 222.363 12.1364C222.17 12.1932 221.951 12.2472 221.707 12.2983C221.462 12.3437 221.218 12.3864 220.974 12.4261C220.729 12.4602 220.508 12.4915 220.309 12.5199C219.883 12.5824 219.511 12.6818 219.192 12.8182C218.874 12.9545 218.627 13.1392 218.451 13.3722C218.275 13.5994 218.187 13.8835 218.187 14.2244C218.187 14.7188 218.366 15.0966 218.724 15.358C219.087 15.6136 219.548 15.7415 220.104 15.7415ZM234.077 18.2131C233.083 18.2131 232.183 17.9574 231.376 17.446C230.575 16.929 229.938 16.1705 229.467 15.1705C229.001 14.1648 228.768 12.9318 228.768 11.4716C228.768 9.97159 229.009 8.72443 229.492 7.73011C229.975 6.73011 230.617 5.98295 231.418 5.48864C232.225 4.98864 233.109 4.73864 234.069 4.73864C234.802 4.73864 235.413 4.86364 235.901 5.11364C236.396 5.35795 236.793 5.66477 237.094 6.03409C237.401 6.39773 237.634 6.75568 237.793 7.10795H237.904V0.545454H241.526V18H237.947V15.9034H237.793C237.623 16.267 237.381 16.6278 237.069 16.9858C236.762 17.3381 236.362 17.6307 235.867 17.8636C235.379 18.0966 234.782 18.2131 234.077 18.2131ZM235.228 15.3239C235.813 15.3239 236.308 15.1648 236.711 14.8466C237.12 14.5227 237.433 14.071 237.648 13.4915C237.87 12.9119 237.981 12.233 237.981 11.4545C237.981 10.6761 237.873 10 237.657 9.42614C237.441 8.85227 237.129 8.40909 236.719 8.09659C236.31 7.78409 235.813 7.62784 235.228 7.62784C234.631 7.62784 234.129 7.78977 233.719 8.11364C233.31 8.4375 233.001 8.88636 232.79 9.46023C232.58 10.0341 232.475 10.6989 232.475 11.4545C232.475 12.2159 232.58 12.8892 232.79 13.4744C233.006 14.054 233.316 14.5085 233.719 14.8381C234.129 15.1619 234.631 15.3239 235.228 15.3239ZM250.426 18.2557C249.102 18.2557 247.957 17.9744 246.991 17.4119C246.031 16.8437 245.29 16.054 244.767 15.0426C244.244 14.0256 243.983 12.8466 243.983 11.5057C243.983 10.1534 244.244 8.97159 244.767 7.96023C245.29 6.94318 246.031 6.15341 246.991 5.59091C247.957 5.02273 249.102 4.73864 250.426 4.73864C251.75 4.73864 252.892 5.02273 253.852 5.59091C254.818 6.15341 255.562 6.94318 256.085 7.96023C256.608 8.97159 256.869 10.1534 256.869 11.5057C256.869 12.8466 256.608 14.0256 256.085 15.0426C255.562 16.054 254.818 16.8437 253.852 17.4119C252.892 17.9744 251.75 18.2557 250.426 18.2557ZM250.443 15.4432C251.045 15.4432 251.548 15.2727 251.952 14.9318C252.355 14.5852 252.659 14.1136 252.864 13.517C253.074 12.9205 253.179 12.2415 253.179 11.4801C253.179 10.7188 253.074 10.0398 252.864 9.44318C252.659 8.84659 252.355 8.375 251.952 8.02841C251.548 7.68182 251.045 7.50852 250.443 7.50852C249.835 7.50852 249.324 7.68182 248.909 8.02841C248.5 8.375 248.19 8.84659 247.98 9.44318C247.776 10.0398 247.673 10.7188 247.673 11.4801C247.673 12.2415 247.776 12.9205 247.98 13.517C248.19 14.1136 248.5 14.5852 248.909 14.9318C249.324 15.2727 249.835 15.4432 250.443 15.4432ZM22.7905 39.4318V47H19.1598V33.9091H22.62V36.2188H22.7734C23.0632 35.4574 23.549 34.8551 24.2308 34.4119C24.9126 33.9631 25.7393 33.7386 26.7109 33.7386C27.62 33.7386 28.4126 33.9375 29.0888 34.3352C29.7649 34.733 30.2905 35.3011 30.6655 36.0398C31.0405 36.7727 31.228 37.6477 31.228 38.6648V47H27.5973V39.3125C27.603 38.5114 27.3984 37.8864 26.9837 37.4375C26.5689 36.983 25.9979 36.7557 25.2706 36.7557C24.782 36.7557 24.3501 36.8608 23.9751 37.071C23.6058 37.2812 23.3161 37.5881 23.1058 37.9915C22.9013 38.3892 22.7962 38.8693 22.7905 39.4318ZM37.8224 47.2472C36.9872 47.2472 36.2429 47.1023 35.5895 46.8125C34.9361 46.517 34.419 46.0824 34.0384 45.5085C33.6634 44.929 33.4759 44.2074 33.4759 43.3438C33.4759 42.6165 33.6094 42.0057 33.8764 41.5114C34.1435 41.017 34.5071 40.6193 34.9673 40.3182C35.4276 40.017 35.9503 39.7898 36.5355 39.6364C37.1264 39.483 37.7457 39.375 38.3935 39.3125C39.1548 39.233 39.7685 39.1591 40.2344 39.0909C40.7003 39.017 41.0384 38.9091 41.2486 38.767C41.4588 38.625 41.5639 38.4148 41.5639 38.1364V38.0852C41.5639 37.5455 41.3935 37.1278 41.0526 36.8324C40.7173 36.5369 40.2401 36.3892 39.6207 36.3892C38.9673 36.3892 38.4474 36.5341 38.0611 36.8239C37.6747 37.108 37.419 37.4659 37.294 37.8977L33.9361 37.625C34.1065 36.8295 34.4418 36.142 34.9418 35.5625C35.4418 34.9773 36.0866 34.5284 36.8764 34.2159C37.6719 33.8977 38.5923 33.7386 39.6378 33.7386C40.3651 33.7386 41.0611 33.8239 41.7259 33.9943C42.3963 34.1648 42.9901 34.429 43.5071 34.7869C44.0298 35.1449 44.4418 35.6051 44.7429 36.1676C45.044 36.7244 45.1946 37.392 45.1946 38.1705V47H41.7514V45.1847H41.6491C41.4389 45.5938 41.1577 45.9545 40.8054 46.267C40.4531 46.5739 40.0298 46.8153 39.5355 46.9915C39.0412 47.1619 38.4702 47.2472 37.8224 47.2472ZM38.8622 44.7415C39.3963 44.7415 39.8679 44.6364 40.277 44.4261C40.6861 44.2102 41.0071 43.9205 41.2401 43.5568C41.473 43.1932 41.5895 42.7812 41.5895 42.321V40.9318C41.4759 41.0057 41.3196 41.0739 41.1207 41.1364C40.9276 41.1932 40.7088 41.2472 40.4645 41.2983C40.2202 41.3437 39.9759 41.3864 39.7315 41.4261C39.4872 41.4602 39.2656 41.4915 39.0668 41.5199C38.6406 41.5824 38.2685 41.6818 37.9503 41.8182C37.6321 41.9545 37.3849 42.1392 37.2088 42.3722C37.0327 42.5994 36.9446 42.8835 36.9446 43.2244C36.9446 43.7188 37.1236 44.0966 37.4815 44.358C37.8452 44.6136 38.3054 44.7415 38.8622 44.7415ZM52.8352 47.2131C51.8409 47.2131 50.9403 46.9574 50.1335 46.446C49.3324 45.929 48.696 45.1705 48.2244 44.1705C47.7585 43.1648 47.5256 41.9318 47.5256 40.4716C47.5256 38.9716 47.767 37.7244 48.25 36.7301C48.733 35.7301 49.375 34.983 50.1761 34.4886C50.983 33.9886 51.8665 33.7386 52.8267 33.7386C53.5597 33.7386 54.1705 33.8636 54.6591 34.1136C55.1534 34.358 55.5511 34.6648 55.8523 35.0341C56.1591 35.3977 56.392 35.7557 56.5511 36.108H56.6619V29.5455H60.2841V47H56.7045V44.9034H56.5511C56.3807 45.267 56.1392 45.6278 55.8267 45.9858C55.5199 46.3381 55.1193 46.6307 54.625 46.8636C54.1364 47.0966 53.5398 47.2131 52.8352 47.2131ZM53.9858 44.3239C54.571 44.3239 55.0653 44.1648 55.4688 43.8466C55.8778 43.5227 56.1903 43.071 56.4062 42.4915C56.6278 41.9119 56.7386 41.233 56.7386 40.4545C56.7386 39.6761 56.6307 39 56.4148 38.4261C56.1989 37.8523 55.8864 37.4091 55.4773 37.0966C55.0682 36.7841 54.571 36.6278 53.9858 36.6278C53.3892 36.6278 52.8864 36.7898 52.4773 37.1136C52.0682 37.4375 51.7585 37.8864 51.5483 38.4602C51.3381 39.0341 51.233 39.6989 51.233 40.4545C51.233 41.2159 51.3381 41.8892 51.5483 42.4744C51.7642 43.054 52.0739 43.5085 52.4773 43.8381C52.8864 44.1619 53.3892 44.3239 53.9858 44.3239ZM67.0021 47.2472C66.1669 47.2472 65.4226 47.1023 64.7692 46.8125C64.1158 46.517 63.5987 46.0824 63.218 45.5085C62.843 44.929 62.6555 44.2074 62.6555 43.3438C62.6555 42.6165 62.7891 42.0057 63.0561 41.5114C63.3232 41.017 63.6868 40.6193 64.147 40.3182C64.6072 40.017 65.13 39.7898 65.7152 39.6364C66.3061 39.483 66.9254 39.375 67.5732 39.3125C68.3345 39.233 68.9482 39.1591 69.4141 39.0909C69.88 39.017 70.218 38.9091 70.4283 38.767C70.6385 38.625 70.7436 38.4148 70.7436 38.1364V38.0852C70.7436 37.5455 70.5732 37.1278 70.2322 36.8324C69.897 36.5369 69.4197 36.3892 68.8004 36.3892C68.147 36.3892 67.6271 36.5341 67.2408 36.8239C66.8544 37.108 66.5987 37.4659 66.4737 37.8977L63.1158 37.625C63.2862 36.8295 63.6214 36.142 64.1214 35.5625C64.6214 34.9773 65.2663 34.5284 66.0561 34.2159C66.8516 33.8977 67.772 33.7386 68.8175 33.7386C69.5447 33.7386 70.2408 33.8239 70.9055 33.9943C71.576 34.1648 72.1697 34.429 72.6868 34.7869C73.2095 35.1449 73.6214 35.6051 73.9226 36.1676C74.2237 36.7244 74.3743 37.392 74.3743 38.1705V47H70.9311V45.1847H70.8288C70.6186 45.5938 70.3374 45.9545 69.9851 46.267C69.6328 46.5739 69.2095 46.8153 68.7152 46.9915C68.2209 47.1619 67.6499 47.2472 67.0021 47.2472ZM68.0419 44.7415C68.576 44.7415 69.0476 44.6364 69.4567 44.4261C69.8658 44.2102 70.1868 43.9205 70.4197 43.5568C70.6527 43.1932 70.7692 42.7812 70.7692 42.321V40.9318C70.6555 41.0057 70.4993 41.0739 70.3004 41.1364C70.1072 41.1932 69.8885 41.2472 69.6442 41.2983C69.3999 41.3437 69.1555 41.3864 68.9112 41.4261C68.6669 41.4602 68.4453 41.4915 68.2464 41.5199C67.8203 41.5824 67.4482 41.6818 67.13 41.8182C66.8118 41.9545 66.5646 42.1392 66.3885 42.3722C66.2124 42.5994 66.1243 42.8835 66.1243 43.2244C66.1243 43.7188 66.3033 44.0966 66.6612 44.358C67.0249 44.6136 67.4851 44.7415 68.0419 44.7415ZM91.3963 51.9091V44.9034H91.2855C91.1151 45.267 90.8736 45.6278 90.5611 45.9858C90.2543 46.3381 89.8537 46.6307 89.3594 46.8636C88.8707 47.0966 88.2741 47.2131 87.5696 47.2131C86.5753 47.2131 85.6747 46.9574 84.8679 46.446C84.0668 45.929 83.4304 45.1705 82.9588 44.1705C82.4929 43.1648 82.2599 41.9318 82.2599 40.4716C82.2599 38.9716 82.5014 37.7244 82.9844 36.7301C83.4673 35.7301 84.1094 34.983 84.9105 34.4886C85.7173 33.9886 86.6009 33.7386 87.5611 33.7386C88.294 33.7386 88.9048 33.8636 89.3935 34.1136C89.8878 34.358 90.2855 34.6648 90.5866 35.0341C90.8935 35.3977 91.1264 35.7557 91.2855 36.108H91.4389V33.9091H95.0185V51.9091H91.3963ZM88.7202 44.3239C89.3054 44.3239 89.7997 44.1648 90.2031 43.8466C90.6122 43.5227 90.9247 43.071 91.1406 42.4915C91.3622 41.9119 91.473 41.233 91.473 40.4545C91.473 39.6761 91.3651 39 91.1491 38.4261C90.9332 37.8523 90.6207 37.4091 90.2116 37.0966C89.8026 36.7841 89.3054 36.6278 88.7202 36.6278C88.1236 36.6278 87.6207 36.7898 87.2116 37.1136C86.8026 37.4375 86.4929 37.8864 86.2827 38.4602C86.0724 39.0341 85.9673 39.6989 85.9673 40.4545C85.9673 41.2159 86.0724 41.8892 86.2827 42.4744C86.4986 43.054 86.8082 43.5085 87.2116 43.8381C87.6207 44.1619 88.1236 44.3239 88.7202 44.3239ZM106.328 41.4261V33.9091H109.959V47H106.473V44.6222H106.337C106.041 45.3892 105.55 46.0057 104.862 46.4716C104.18 46.9375 103.348 47.1705 102.365 47.1705C101.49 47.1705 100.72 46.9716 100.055 46.5739C99.3906 46.1761 98.8707 45.6108 98.4957 44.8778C98.1264 44.1449 97.9389 43.267 97.9332 42.2443V33.9091H101.564V41.5966C101.57 42.3693 101.777 42.9801 102.186 43.429C102.595 43.8778 103.143 44.1023 103.831 44.1023C104.268 44.1023 104.678 44.0028 105.058 43.804C105.439 43.5994 105.746 43.2983 105.979 42.9006C106.217 42.5028 106.334 42.0114 106.328 41.4261ZM118.829 47.2557C117.482 47.2557 116.323 46.983 115.352 46.4375C114.386 45.8864 113.641 45.108 113.119 44.1023C112.596 43.0909 112.335 41.8949 112.335 40.5142C112.335 39.1676 112.596 37.9858 113.119 36.9688C113.641 35.9517 114.377 35.1591 115.326 34.5909C116.281 34.0227 117.4 33.7386 118.684 33.7386C119.548 33.7386 120.352 33.8778 121.096 34.1562C121.846 34.429 122.499 34.8409 123.056 35.392C123.619 35.9432 124.056 36.6364 124.369 37.4716C124.681 38.3011 124.837 39.2727 124.837 40.3864V41.3835H113.783V39.1335H121.42C121.42 38.6108 121.306 38.1477 121.079 37.7443C120.852 37.3409 120.536 37.0256 120.133 36.7983C119.735 36.5653 119.272 36.4489 118.744 36.4489C118.192 36.4489 117.704 36.5767 117.278 36.8324C116.857 37.0824 116.528 37.4205 116.289 37.8466C116.05 38.267 115.928 38.7358 115.923 39.2528V41.392C115.923 42.0398 116.042 42.5994 116.281 43.071C116.525 43.5426 116.869 43.9062 117.312 44.1619C117.755 44.4176 118.281 44.5455 118.888 44.5455C119.292 44.5455 119.661 44.4886 119.996 44.375C120.332 44.2614 120.619 44.0909 120.857 43.8636C121.096 43.6364 121.278 43.358 121.403 43.0284L124.761 43.25C124.59 44.0568 124.241 44.7614 123.712 45.3636C123.19 45.9602 122.513 46.4261 121.684 46.7614C120.86 47.0909 119.908 47.2557 118.829 47.2557ZM138.727 47.2557C137.381 47.2557 136.222 46.983 135.25 46.4375C134.284 45.8864 133.54 45.108 133.017 44.1023C132.494 43.0909 132.233 41.8949 132.233 40.5142C132.233 39.1676 132.494 37.9858 133.017 36.9688C133.54 35.9517 134.276 35.1591 135.224 34.5909C136.179 34.0227 137.298 33.7386 138.582 33.7386C139.446 33.7386 140.25 33.8778 140.994 34.1562C141.744 34.429 142.398 34.8409 142.955 35.392C143.517 35.9432 143.955 36.6364 144.267 37.4716C144.58 38.3011 144.736 39.2727 144.736 40.3864V41.3835H133.682V39.1335H141.318C141.318 38.6108 141.205 38.1477 140.977 37.7443C140.75 37.3409 140.435 37.0256 140.031 36.7983C139.634 36.5653 139.17 36.4489 138.642 36.4489C138.091 36.4489 137.602 36.5767 137.176 36.8324C136.756 37.0824 136.426 37.4205 136.188 37.8466C135.949 38.267 135.827 38.7358 135.821 39.2528V41.392C135.821 42.0398 135.94 42.5994 136.179 43.071C136.423 43.5426 136.767 43.9062 137.21 44.1619C137.653 44.4176 138.179 44.5455 138.787 44.5455C139.19 44.5455 139.56 44.4886 139.895 44.375C140.23 44.2614 140.517 44.0909 140.756 43.8636C140.994 43.6364 141.176 43.358 141.301 43.0284L144.659 43.25C144.489 44.0568 144.139 44.7614 143.611 45.3636C143.088 45.9602 142.412 46.4261 141.582 46.7614C140.759 47.0909 139.807 47.2557 138.727 47.2557ZM150.736 39.4318V47H147.105V33.9091H150.565V36.2188H150.719C151.009 35.4574 151.494 34.8551 152.176 34.4119C152.858 33.9631 153.685 33.7386 154.656 33.7386C155.565 33.7386 156.358 33.9375 157.034 34.3352C157.71 34.733 158.236 35.3011 158.611 36.0398C158.986 36.7727 159.173 37.6477 159.173 38.6648V47H155.543V39.3125C155.548 38.5114 155.344 37.8864 154.929 37.4375C154.514 36.983 153.943 36.7557 153.216 36.7557C152.727 36.7557 152.295 36.8608 151.92 37.071C151.551 37.2812 151.261 37.5881 151.051 37.9915C150.847 38.3892 150.741 38.8693 150.736 39.4318ZM167.95 47.2557C166.609 47.2557 165.455 46.9716 164.489 46.4034C163.529 45.8295 162.79 45.0341 162.273 44.017C161.762 43 161.506 41.8295 161.506 40.5057C161.506 39.1648 161.765 37.9886 162.282 36.9773C162.805 35.9602 163.546 35.1676 164.506 34.5994C165.467 34.0256 166.609 33.7386 167.933 33.7386C169.075 33.7386 170.075 33.946 170.933 34.3608C171.79 34.7756 172.469 35.358 172.969 36.108C173.469 36.858 173.745 37.7386 173.796 38.75H170.37C170.273 38.0966 170.018 37.571 169.603 37.1733C169.194 36.7699 168.657 36.5682 167.992 36.5682C167.43 36.5682 166.938 36.7216 166.518 37.0284C166.103 37.3295 165.779 37.7699 165.546 38.3494C165.313 38.929 165.197 39.6307 165.197 40.4545C165.197 41.2898 165.31 42 165.538 42.5852C165.771 43.1705 166.097 43.6165 166.518 43.9233C166.938 44.2301 167.43 44.3835 167.992 44.3835C168.407 44.3835 168.779 44.2983 169.109 44.1278C169.444 43.9574 169.719 43.7102 169.935 43.3864C170.157 43.0568 170.302 42.6619 170.37 42.2017H173.796C173.739 43.2017 173.467 44.0824 172.978 44.8438C172.495 45.5994 171.827 46.1903 170.975 46.6165C170.123 47.0426 169.114 47.2557 167.95 47.2557ZM176.121 47V33.9091H179.641V36.1932H179.777C180.016 35.3807 180.416 34.767 180.979 34.3523C181.541 33.9318 182.189 33.7216 182.922 33.7216C183.104 33.7216 183.3 33.733 183.51 33.7557C183.72 33.7784 183.905 33.8097 184.064 33.8494V37.071C183.893 37.0199 183.658 36.9744 183.357 36.9347C183.055 36.8949 182.78 36.875 182.53 36.875C181.996 36.875 181.518 36.9915 181.098 37.2244C180.683 37.4517 180.354 37.7699 180.109 38.179C179.871 38.5881 179.751 39.0597 179.751 39.5938V47H176.121ZM185.941 47V33.9091H189.572V47H185.941ZM187.765 32.2216C187.225 32.2216 186.762 32.0426 186.376 31.6847C185.995 31.321 185.805 30.8864 185.805 30.3807C185.805 29.8807 185.995 29.4517 186.376 29.0938C186.762 28.7301 187.225 28.5483 187.765 28.5483C188.305 28.5483 188.765 28.7301 189.146 29.0938C189.532 29.4517 189.725 29.8807 189.725 30.3807C189.725 30.8864 189.532 31.321 189.146 31.6847C188.765 32.0426 188.305 32.2216 187.765 32.2216ZM192.48 51.9091V33.9091H196.06V36.108H196.222C196.381 35.7557 196.611 35.3977 196.912 35.0341C197.219 34.6648 197.616 34.358 198.105 34.1136C198.599 33.8636 199.213 33.7386 199.946 33.7386C200.901 33.7386 201.781 33.9886 202.588 34.4886C203.395 34.983 204.04 35.7301 204.523 36.7301C205.006 37.7244 205.247 38.9716 205.247 40.4716C205.247 41.9318 205.011 43.1648 204.54 44.1705C204.074 45.1705 203.438 45.929 202.631 46.446C201.83 46.9574 200.932 47.2131 199.938 47.2131C199.233 47.2131 198.634 47.0966 198.139 46.8636C197.651 46.6307 197.25 46.3381 196.938 45.9858C196.625 45.6278 196.386 45.267 196.222 44.9034H196.111V51.9091H192.48ZM196.034 40.4545C196.034 41.233 196.142 41.9119 196.358 42.4915C196.574 43.071 196.886 43.5227 197.295 43.8466C197.705 44.1648 198.202 44.3239 198.787 44.3239C199.378 44.3239 199.878 44.1619 200.287 43.8381C200.696 43.5085 201.006 43.054 201.216 42.4744C201.432 41.8892 201.54 41.2159 201.54 40.4545C201.54 39.6989 201.435 39.0341 201.224 38.4602C201.014 37.8864 200.705 37.4375 200.295 37.1136C199.886 36.7898 199.384 36.6278 198.787 36.6278C198.196 36.6278 197.696 36.7841 197.287 37.0966C196.884 37.4091 196.574 37.8523 196.358 38.4261C196.142 39 196.034 39.6761 196.034 40.4545ZM214.631 33.9091V36.6364H206.747V33.9091H214.631ZM208.537 30.7727H212.168V42.9773C212.168 43.3125 212.219 43.5739 212.321 43.7614C212.423 43.9432 212.565 44.071 212.747 44.1449C212.935 44.2187 213.151 44.2557 213.395 44.2557C213.565 44.2557 213.736 44.2415 213.906 44.2131C214.077 44.179 214.207 44.1534 214.298 44.1364L214.869 46.8381C214.688 46.8949 214.432 46.9602 214.102 47.0341C213.773 47.1136 213.372 47.1619 212.901 47.179C212.026 47.2131 211.259 47.0966 210.599 46.8295C209.946 46.5625 209.438 46.1477 209.074 45.5852C208.71 45.0227 208.531 44.3125 208.537 43.4545V30.7727ZM220.729 47.2472C219.893 47.2472 219.149 47.1023 218.496 46.8125C217.842 46.517 217.325 46.0824 216.945 45.5085C216.57 44.929 216.382 44.2074 216.382 43.3438C216.382 42.6165 216.516 42.0057 216.783 41.5114C217.05 41.017 217.413 40.6193 217.874 40.3182C218.334 40.017 218.857 39.7898 219.442 39.6364C220.033 39.483 220.652 39.375 221.3 39.3125C222.061 39.233 222.675 39.1591 223.141 39.0909C223.607 39.017 223.945 38.9091 224.155 38.767C224.365 38.625 224.47 38.4148 224.47 38.1364V38.0852C224.47 37.5455 224.3 37.1278 223.959 36.8324C223.624 36.5369 223.146 36.3892 222.527 36.3892C221.874 36.3892 221.354 36.5341 220.967 36.8239C220.581 37.108 220.325 37.4659 220.2 37.8977L216.842 37.625C217.013 36.8295 217.348 36.142 217.848 35.5625C218.348 34.9773 218.993 34.5284 219.783 34.2159C220.578 33.8977 221.499 33.7386 222.544 33.7386C223.271 33.7386 223.967 33.8239 224.632 33.9943C225.303 34.1648 225.896 34.429 226.413 34.7869C226.936 35.1449 227.348 35.6051 227.649 36.1676C227.95 36.7244 228.101 37.392 228.101 38.1705V47H224.658V45.1847H224.555C224.345 45.5938 224.064 45.9545 223.712 46.267C223.359 46.5739 222.936 46.8153 222.442 46.9915C221.947 47.1619 221.376 47.2472 220.729 47.2472ZM221.768 44.7415C222.303 44.7415 222.774 44.6364 223.183 44.4261C223.592 44.2102 223.913 43.9205 224.146 43.5568C224.379 43.1932 224.496 42.7812 224.496 42.321V40.9318C224.382 41.0057 224.226 41.0739 224.027 41.1364C223.834 41.1932 223.615 41.2472 223.371 41.2983C223.126 41.3437 222.882 41.3864 222.638 41.4261C222.393 41.4602 222.172 41.4915 221.973 41.5199C221.547 41.5824 221.175 41.6818 220.857 41.8182C220.538 41.9545 220.291 42.1392 220.115 42.3722C219.939 42.5994 219.851 42.8835 219.851 43.2244C219.851 43.7188 220.03 44.0966 220.388 44.358C220.751 44.6136 221.212 44.7415 221.768 44.7415ZM230.918 47V33.9091H234.438V36.1932H234.574C234.813 35.3807 235.213 34.767 235.776 34.3523C236.338 33.9318 236.986 33.7216 237.719 33.7216C237.901 33.7216 238.097 33.733 238.307 33.7557C238.517 33.7784 238.702 33.8097 238.861 33.8494V37.071C238.69 37.0199 238.455 36.9744 238.153 36.9347C237.852 36.8949 237.577 36.875 237.327 36.875C236.793 36.875 236.315 36.9915 235.895 37.2244C235.48 37.4517 235.151 37.7699 234.906 38.179C234.668 38.5881 234.548 39.0597 234.548 39.5938V47H230.918ZM121.348 76.2216C120.786 76.2216 120.303 76.0227 119.9 75.625C119.502 75.2216 119.303 74.7386 119.303 74.1761C119.303 73.6193 119.502 73.142 119.9 72.7443C120.303 72.3466 120.786 72.1477 121.348 72.1477C121.894 72.1477 122.371 72.3466 122.78 72.7443C123.189 73.142 123.394 73.6193 123.394 74.1761C123.394 74.5511 123.297 74.8949 123.104 75.2074C122.917 75.5142 122.669 75.7614 122.363 75.9489C122.056 76.1307 121.718 76.2216 121.348 76.2216ZM128.497 76.2216C127.934 76.2216 127.451 76.0227 127.048 75.625C126.65 75.2216 126.451 74.7386 126.451 74.1761C126.451 73.6193 126.65 73.142 127.048 72.7443C127.451 72.3466 127.934 72.1477 128.497 72.1477C129.042 72.1477 129.52 72.3466 129.929 72.7443C130.338 73.142 130.542 73.6193 130.542 74.1761C130.542 74.5511 130.446 74.8949 130.252 75.2074C130.065 75.5142 129.818 75.7614 129.511 75.9489C129.204 76.1307 128.866 76.2216 128.497 76.2216ZM135.645 76.2216C135.083 76.2216 134.6 76.0227 134.196 75.625C133.799 75.2216 133.6 74.7386 133.6 74.1761C133.6 73.6193 133.799 73.142 134.196 72.7443C134.6 72.3466 135.083 72.1477 135.645 72.1477C136.191 72.1477 136.668 72.3466 137.077 72.7443C137.486 73.142 137.691 73.6193 137.691 74.1761C137.691 74.5511 137.594 74.8949 137.401 75.2074C137.213 75.5142 136.966 75.7614 136.659 75.9489C136.353 76.1307 136.015 76.2216 135.645 76.2216Z" fill="#343A40"/>
</svg>
